<mxfile host="app.diagrams.net" modified="2023-12-16T05:17:57.850Z" agent="Mozilla/5.0 (Macintosh; Intel Mac OS X 10_15_7) AppleWebKit/605.1.15 (KHTML, like Gecko) Version/16.5.1 Safari/605.1.15" etag="lTkHOl_k-shONz_p3xt8" version="22.1.11" type="github">
  <diagram name="ページ1" id="6Al5ES2CbL79BTHHyfsO">
    <mxGraphModel dx="954" dy="622" grid="1" gridSize="10" guides="1" tooltips="1" connect="1" arrows="1" fold="1" page="1" pageScale="1" pageWidth="827" pageHeight="1169" math="0" shadow="0">
      <root>
        <mxCell id="0" />
        <mxCell id="1" parent="0" />
        <mxCell id="2bkF_MWmPpqvbhCB25xf-2" value="プロセス/レビュー/テストの多重保証" style="text;html=1;strokeColor=none;fillColor=none;align=center;verticalAlign=middle;whiteSpace=wrap;rounded=0;" vertex="1" parent="1">
          <mxGeometry x="360" y="120" width="280" height="40" as="geometry" />
        </mxCell>
        <mxCell id="2bkF_MWmPpqvbhCB25xf-3" value="ユニット/インテグ/システムテストの多重保証" style="text;html=1;strokeColor=none;fillColor=none;align=center;verticalAlign=middle;whiteSpace=wrap;rounded=0;" vertex="1" parent="1">
          <mxGeometry x="360" y="200" width="280" height="40" as="geometry" />
        </mxCell>
      </root>
    </mxGraphModel>
  </diagram>
</mxfile>
